<svg width="612" height="401" viewBox="0 0 612 401" fill="none" xmlns="http://www.w3.org/2000/svg">
<g clip-path="url(#clip0_12_2)">
<path d="M601.328 94.54L591.758 140.884L585.602 134.878L575.119 142.35L567.112 132.409L549.146 145.466L533.803 119.796L516.68 129.827L509.892 120.464L488.15 132.714L481.608 118.714L496.847 44.903L578.547 61.772L601.328 94.54Z" fill="#EBEBEB"/>
<path d="M578.551 61.766L601.33 94.533L572.994 88.683L578.551 61.766Z" fill="#DBDBDB"/>
<path d="M589.722 150.147L575.687 218.142L465.642 195.427L479.572 127.973L486.114 141.973L507.856 129.723L514.644 139.086L531.768 129.066L547.111 154.736L565.077 141.676L573.084 151.617L583.567 144.145L589.722 150.147Z" fill="#EBEBEB"/>
<path d="M432.213 142.179L320.063 149.119L311.154 5.153L394.425 0L425.002 25.645L432.213 142.179Z" fill="#EBEBEB"/>
<path d="M394.425 0L425.002 25.645L396.123 27.432L394.425 0Z" fill="#DBDBDB"/>
<path d="M363.336 96.866L362.902 93.619C361.771 86.888 363.614 79.361 369.463 71.485C374.735 64.521 377.597 59.453 377.281 53.81C376.923 47.41 372.671 43.373 364.761 43.69C360.241 43.9259 355.899 45.5301 352.311 48.29L348.858 40.556C352.829 37.314 359.866 34.907 366.513 34.535C380.937 33.727 387.958 42.267 388.492 51.799C388.969 60.329 384.548 66.741 378.928 74.228C373.775 81.059 372.077 86.69 372.811 93.066L373.119 96.32L363.336 96.866ZM361.56 114.58C361.3 109.94 364.253 106.503 368.643 106.257C373.033 106.011 376.226 109.104 376.485 113.745C376.731 118.134 374.037 121.682 369.396 121.945C365.006 122.185 361.806 118.966 361.56 114.577V114.58Z" fill="#DBDBDB"/>
<path d="M82.8611 72.38L71.5801 67.266L70.0151 70.722C69.7873 71.218 69.4262 71.6409 68.972 71.9435C68.5179 72.2462 67.9885 72.4167 67.4431 72.436C66.8253 72.463 66.2094 72.5234 65.5981 72.617C65.0605 72.7031 64.5096 72.6383 64.0067 72.43C63.5037 72.2217 63.0684 71.8779 62.7491 71.437L60.5391 68.354L50.4621 75.574L52.6711 78.657C52.9857 79.1014 53.171 79.6243 53.2063 80.1677C53.2416 80.7111 53.1256 81.2536 52.8711 81.735C52.5861 82.2835 52.3307 82.847 52.1061 83.423C51.9127 83.9332 51.5812 84.3795 51.1487 84.7122C50.7163 85.0449 50.1998 85.2508 49.6571 85.307L45.8811 85.678L47.0981 98.01L50.8861 97.633C51.4298 97.5848 51.9762 97.6883 52.4645 97.9321C52.9528 98.1759 53.3639 98.5505 53.6521 99.014C53.8151 99.27 53.9861 99.521 54.1641 99.77C54.3421 100.019 54.5251 100.261 54.7141 100.497C55.059 100.917 55.2808 101.424 55.355 101.962C55.4291 102.5 55.3527 103.049 55.1341 103.546L53.5581 107.027L64.8431 112.145L66.4151 108.682C66.6436 108.186 67.0053 107.764 67.46 107.461C67.9147 107.159 68.4445 106.989 68.9901 106.971C69.6051 106.944 70.2183 106.885 70.8271 106.793C71.3644 106.707 71.9149 106.772 72.4175 106.98C72.9202 107.189 73.3552 107.532 73.6741 107.973L75.8841 111.057L85.9611 103.838L83.7511 100.753C83.4372 100.309 83.2523 99.7865 83.217 99.2437C83.1817 98.701 83.2973 98.1591 83.5511 97.678C83.8345 97.1311 84.0882 96.5692 84.3111 95.995C84.5044 95.4844 84.8357 95.0376 85.2682 94.7044C85.7006 94.3712 86.2171 94.1647 86.7601 94.108L90.5441 93.733L89.3271 81.401L85.5411 81.775C84.9991 81.8224 84.4546 81.7187 83.9681 81.4752C83.4816 81.2318 83.0721 80.8582 82.7851 80.396C82.6198 80.14 82.4474 79.8863 82.2681 79.635C82.0888 79.3837 81.9054 79.141 81.7181 78.907C81.3715 78.4853 81.1487 77.9757 81.0745 77.4349C81.0004 76.8941 81.0778 76.3434 81.2981 75.844L82.8611 72.38ZM76.4611 83.789C77.6296 85.4215 78.2878 87.364 78.3524 89.3706C78.417 91.3772 77.8851 93.3579 76.824 95.0623C75.7629 96.7666 74.2203 98.118 72.3911 98.9456C70.562 99.7732 68.5285 100.04 66.5478 99.7117C64.5671 99.3836 62.7282 98.4756 61.2636 97.1024C59.799 95.7292 58.7745 93.9526 58.3196 91.9971C57.8648 90.0417 57.9999 87.9953 58.7081 86.1166C59.4163 84.238 60.6656 82.6116 62.2981 81.443C63.3817 80.6665 64.6077 80.1111 65.9061 79.8088C67.2045 79.5064 68.5497 79.4629 69.8649 79.6808C71.1801 79.8987 72.4394 80.3736 73.5709 81.0786C74.7024 81.7835 75.6838 82.7045 76.4591 83.789H76.4611Z" fill="#EBEBEB"/>
<path d="M592.764 235.979L585.245 240.318L586.574 242.618C586.764 242.95 586.858 243.328 586.845 243.71C586.832 244.093 586.713 244.464 586.501 244.782C586.265 245.145 586.048 245.521 585.852 245.907C585.682 246.248 585.42 246.535 585.096 246.737C584.772 246.938 584.399 247.046 584.017 247.048H581.36V255.733H584.017C584.399 255.735 584.772 255.843 585.096 256.044C585.42 256.246 585.682 256.533 585.852 256.874C586.048 257.261 586.265 257.636 586.501 257.999C586.713 258.317 586.832 258.689 586.845 259.071C586.858 259.453 586.764 259.831 586.574 260.163L585.245 262.463L592.764 266.802L594.095 264.49C594.29 264.161 594.572 263.892 594.91 263.713C595.249 263.535 595.63 263.454 596.011 263.479C596.223 263.49 596.436 263.496 596.65 263.495C596.863 263.495 597.077 263.495 597.288 263.479C597.668 263.454 598.048 263.535 598.384 263.712C598.721 263.889 599.002 264.157 599.196 264.484L600.535 266.802L608.054 262.463L606.724 260.155C606.535 259.823 606.442 259.444 606.455 259.062C606.469 258.68 606.588 258.309 606.8 257.991C607.036 257.63 607.252 257.256 607.448 256.872C607.619 256.531 607.881 256.244 608.204 256.043C608.528 255.842 608.901 255.734 609.282 255.732H611.94V247.047H609.28C608.899 247.045 608.526 246.937 608.203 246.736C607.879 246.535 607.617 246.249 607.446 245.908C607.251 245.524 607.035 245.15 606.798 244.789C606.586 244.471 606.467 244.1 606.453 243.717C606.44 243.335 606.533 242.956 606.722 242.624L608.052 240.316L600.533 235.977L599.201 238.286C599.007 238.614 598.726 238.882 598.389 239.06C598.052 239.237 597.672 239.318 597.291 239.293C597.079 239.282 596.864 239.277 596.648 239.277C596.432 239.277 596.221 239.282 596.009 239.293C595.628 239.318 595.247 239.237 594.908 239.059C594.57 238.881 594.287 238.612 594.092 238.283L592.764 235.979ZM596.65 244.279C598.057 244.28 599.431 244.698 600.6 245.48C601.769 246.262 602.68 247.373 603.218 248.672C603.755 249.972 603.895 251.402 603.62 252.781C603.345 254.16 602.667 255.427 601.672 256.421C600.677 257.415 599.41 258.091 598.03 258.365C596.651 258.639 595.221 258.497 593.922 257.959C592.623 257.42 591.513 256.508 590.732 255.338C589.951 254.168 589.535 252.793 589.535 251.387C589.535 250.453 589.719 249.528 590.077 248.665C590.434 247.802 590.959 247.019 591.62 246.359C592.28 245.698 593.065 245.175 593.928 244.818C594.791 244.462 595.716 244.279 596.65 244.28V244.279Z" fill="#EBEBEB"/>
<path d="M105.68 35.429L98.7802 40.702L100.395 42.813C100.626 43.1179 100.767 43.4807 100.804 43.8612C100.84 44.2417 100.77 44.6249 100.602 44.968C100.414 45.3587 100.247 45.7593 100.102 46.168C99.9775 46.5284 99.7553 46.8472 99.4603 47.0889C99.1653 47.3305 98.809 47.4857 98.4312 47.537L95.7952 47.88L96.9162 56.491L99.5522 56.148C99.9311 56.1015 100.315 56.1609 100.663 56.3198C101.01 56.4787 101.306 56.7308 101.518 57.048C101.762 57.406 102.026 57.7505 102.307 58.08C102.558 58.3684 102.724 58.7209 102.786 59.0981C102.848 59.4753 102.804 59.8624 102.659 60.216L101.638 62.67L109.654 66.002L110.676 63.537C110.827 63.1856 111.072 62.8828 111.384 62.6623C111.696 62.4418 112.064 62.3123 112.445 62.288C112.656 62.2714 112.868 62.249 113.081 62.221C113.295 62.193 113.505 62.1597 113.712 62.121C114.085 62.0471 114.472 62.078 114.829 62.2104C115.185 62.3428 115.499 62.5715 115.733 62.871L117.36 64.997L124.26 59.724L122.642 57.607C122.412 57.3014 122.272 56.938 122.237 56.5574C122.201 56.1767 122.273 55.7937 122.442 55.451C122.631 55.0625 122.798 54.6639 122.942 54.257C123.068 53.8972 123.29 53.579 123.585 53.3378C123.881 53.0965 124.237 52.9416 124.614 52.89L127.25 52.547L126.129 43.936L123.493 44.279C123.115 44.3259 122.731 44.2671 122.384 44.1094C122.037 43.9516 121.741 43.7009 121.527 43.385C121.284 43.029 121.021 42.6865 120.74 42.359C120.487 42.071 120.319 41.7182 120.256 41.3402C120.192 40.9622 120.235 40.5739 120.38 40.219L121.401 37.758L113.385 34.426L112.362 36.887C112.212 37.2374 111.968 37.5392 111.656 37.7591C111.345 37.9791 110.979 38.1085 110.598 38.133C110.386 38.149 110.172 38.172 109.958 38.2C109.744 38.228 109.535 38.26 109.326 38.3C108.951 38.3744 108.562 38.3433 108.204 38.21C107.845 38.0767 107.531 37.8465 107.295 37.545L105.68 35.429ZM110.604 43.159C111.999 42.978 113.416 43.2148 114.677 43.8393C115.937 44.4639 116.984 45.4482 117.685 46.6677C118.386 47.8873 118.71 49.2873 118.615 50.6908C118.52 52.0942 118.012 53.4381 117.153 54.5524C116.295 55.6667 115.125 56.5014 113.792 56.951C112.459 57.4005 111.023 57.4447 109.665 57.0779C108.307 56.7112 107.088 55.9499 106.163 54.8905C105.237 53.8311 104.647 52.521 104.466 51.126C104.345 50.1995 104.408 49.2583 104.652 48.3563C104.895 47.4542 105.314 46.609 105.884 45.8689C106.455 45.1289 107.166 44.5087 107.976 44.0437C108.786 43.5787 109.68 43.2781 110.607 43.159H110.604Z" fill="#EBEBEB"/>
<path d="M54.1988 261.049C54.5795 251.37 54.446 241.678 53.7988 232.014C52.3688 212.083 49.3255 192.3 44.6988 172.861C42.1628 161.914 39.0398 151.152 35.7848 140.402C35.6848 140.078 35.1688 140.169 35.2588 140.508C45.3228 178.403 53.5798 217.508 53.0108 256.908C52.8518 267.933 51.5758 278.761 50.5288 289.716C50.5008 290.009 50.9828 290.126 51.0498 289.825C53.1338 280.446 53.8088 270.623 54.1988 261.049Z" fill="#EBEBEB"/>
<path d="M35.2649 140.508C35.2649 140.508 20.0189 179.208 23.4319 188.301C26.8449 197.394 33.8799 199.338 33.8799 199.338C33.8799 199.338 24.5519 212.656 31.0709 225.147C37.5899 237.638 52.0709 237.047 53.0349 251.21C53.0369 251.21 53.8439 191.991 35.2649 140.508Z" fill="#EBEBEB"/>
<path d="M51.3798 226.758C51.3979 226.692 51.3926 226.621 51.3648 226.558C49.362 200.137 44.4027 174.023 36.5798 148.707C36.5568 148.632 36.4338 148.657 36.4548 148.734C39.4748 160.054 42.1415 171.435 44.4548 182.878C42.4074 180.937 39.9051 179.542 37.1778 178.82C37.1674 178.816 37.156 178.817 37.1461 178.822C37.1362 178.826 37.1285 178.835 37.1248 178.845C37.1211 178.855 37.1216 178.867 37.1263 178.877C37.131 178.887 37.1394 178.894 37.1498 178.898C40.0171 179.952 42.5927 181.673 44.6638 183.919C45.1098 186.161 45.5431 188.405 45.9638 190.652C42.5568 186.845 37.8308 184.952 33.1038 183.159C33.0916 183.158 33.0794 183.161 33.069 183.167C33.0586 183.173 33.0506 183.183 33.0464 183.195C33.0421 183.206 33.0418 183.219 33.0455 183.23C33.0492 183.242 33.0567 183.252 33.0668 183.259C37.9908 185.264 42.8948 187.847 46.2318 192.09C47.3951 198.512 48.4158 204.956 49.2938 211.421C46.8309 208.841 43.6726 207.032 40.2018 206.211C40.0958 206.185 40.0368 206.342 40.1448 206.373C43.7262 207.405 46.9298 209.457 49.3648 212.279C49.3816 212.296 49.4008 212.31 49.4218 212.322C49.7271 214.596 50.0145 216.873 50.2838 219.152C48.3776 217.54 46.2266 216.243 43.9118 215.309C43.8498 215.283 43.8118 215.38 43.8778 215.409C46.2364 216.432 48.3967 217.862 50.2598 219.633C50.2858 219.658 50.3138 219.655 50.3408 219.665C50.5948 221.833 50.8478 224 51.0668 226.172C47.6326 222.022 43.1756 218.84 38.1358 216.939C38.0358 216.901 37.9848 217.053 38.0808 217.095C43.0579 219.287 47.4305 222.652 50.8248 226.901C50.8606 226.95 50.9111 226.986 50.9688 227.004C51.0266 227.022 51.0886 227.021 51.1458 227.001C51.4751 230.331 51.7648 233.667 52.0148 237.008C52.0148 237.053 52.0938 237.058 52.0908 237.008C51.8955 233.593 51.6585 230.177 51.3798 226.758Z" fill="white"/>
<path d="M39.1298 174.974C36.3698 173.257 33.2166 172.274 29.9698 172.119C29.8938 172.112 29.8878 172.219 29.9618 172.235C33.0977 172.819 36.143 173.813 39.0188 175.193C39.1498 175.249 39.2438 175.053 39.1298 174.974Z" fill="white"/>
<path d="M40.98 215.945C38.8577 214.733 36.5243 213.935 34.104 213.594C34.02 213.58 34.013 213.709 34.095 213.724C36.4622 214.197 38.7512 214.999 40.895 216.109C40.992 216.155 41.07 215.999 40.98 215.945Z" fill="white"/>
<path d="M94.28 188.933C87.8331 193.391 81.9128 198.566 76.633 204.359C71.1889 210.488 66.9858 217.616 64.257 225.346C58.4647 241.464 55.3505 258.422 55.038 275.546C54.8428 285.029 55.755 294.503 57.756 303.775C57.7693 303.845 57.8098 303.907 57.8686 303.947C57.9274 303.987 57.9997 304.002 58.0695 303.989C58.1394 303.975 58.2012 303.935 58.2412 303.876C58.2813 303.817 58.2963 303.745 58.283 303.675C55.7958 287.313 55.8893 270.663 58.56 254.33C61.181 238.321 65.293 220.905 75.47 207.895C81.011 200.81 87.92 195.237 94.749 189.477C95.107 189.166 94.648 188.673 94.28 188.933Z" fill="#EBEBEB"/>
<path d="M57.28 264.015C60.9497 258.078 65.2635 252.564 70.143 247.573C77.77 239.948 84.194 234.528 85.185 229.485C86.176 224.442 77.545 220.728 77.545 220.728C77.545 220.728 88.1 222.623 90.988 218.194C93.876 213.765 95.27 188.109 95.27 188.109C95.27 188.109 76.07 201.818 67.122 221.035C58.174 240.252 57.28 264.015 57.28 264.015Z" fill="#EBEBEB"/>
<path d="M88.627 194.686C80.548 202.621 72.417 211.077 67.659 221.502C66.0343 225.103 64.6183 228.795 63.418 232.559C63.418 232.565 63.418 232.571 63.412 232.576C63.167 233.335 62.919 234.091 62.687 234.855C62.6647 234.893 62.6513 234.935 62.648 234.979C60.3897 242.771 58.5689 250.684 57.194 258.679C57.184 258.73 57.261 258.756 57.272 258.704C58.1 254.704 59.012 250.659 60.032 246.629C60.0711 246.63 60.1099 246.622 60.146 246.607C61.7491 245.921 63.4491 245.49 65.185 245.327C65.3 245.317 65.291 245.117 65.174 245.127C63.4794 245.205 61.803 245.511 60.19 246.036C61.12 242.403 62.132 238.779 63.268 235.207C66.9997 234.304 70.8176 233.805 74.656 233.718C74.695 233.718 74.702 233.659 74.662 233.657C70.9032 233.483 67.1378 233.802 63.462 234.607C63.662 233.994 63.862 233.385 64.071 232.775C66.5656 232.179 69.0973 231.75 71.649 231.491C71.695 231.486 71.692 231.408 71.649 231.409C69.1515 231.456 66.6654 231.758 64.229 232.309C65.274 229.219 66.403 226.171 67.655 223.202C68.6933 220.773 69.9048 218.422 71.28 216.166C73.3019 215.662 75.3556 215.294 77.427 215.066C77.486 215.061 77.479 214.966 77.422 214.966C75.4879 214.818 73.5427 215.01 71.675 215.534C72.685 213.902 73.746 212.305 74.882 210.757C79.188 209.804 83.553 208.919 87.957 209.746C88.033 209.76 88.057 209.632 87.986 209.612C83.793 208.512 79.631 209.146 75.459 209.971C75.914 209.366 76.38 208.771 76.85 208.171C79.4575 207.368 82.1667 206.942 84.895 206.907C84.906 206.907 84.9165 206.902 84.9245 206.895C84.9325 206.887 84.9375 206.877 84.9385 206.866C84.9395 206.855 84.9364 206.844 84.9299 206.835C84.9233 206.826 84.9138 206.82 84.903 206.818C82.3833 206.586 79.8425 206.812 77.403 207.484C80.964 203.061 84.895 198.907 88.783 194.799C88.959 194.609 88.819 194.498 88.627 194.686Z" fill="white"/>
<path d="M88.412 212.174C87.148 211.991 85.8678 211.946 84.5941 212.041C84.5621 212.048 84.5336 212.066 84.5137 212.092C84.4938 212.118 84.4839 212.15 84.4855 212.183C84.4872 212.216 84.5005 212.247 84.5229 212.271C84.5453 212.294 84.5755 212.309 84.608 212.313C85.872 212.35 87.1351 212.256 88.4001 212.325C88.4191 212.325 88.4375 212.318 88.4514 212.305C88.4654 212.292 88.474 212.274 88.4755 212.255C88.477 212.236 88.4714 212.217 88.4596 212.202C88.4478 212.187 88.4309 212.177 88.412 212.174V212.174Z" fill="white"/>
<path d="M74.5921 237.066C72.5651 237.112 70.5619 237.514 68.6741 238.254C68.6271 238.271 68.6541 238.354 68.7021 238.338C70.6571 237.873 72.6331 237.684 74.6021 237.358C74.6366 237.351 74.6675 237.332 74.6894 237.305C74.7112 237.277 74.7225 237.243 74.7213 237.208C74.7201 237.173 74.7065 237.139 74.6828 237.113C74.6591 237.087 74.627 237.07 74.5921 237.066V237.066Z" fill="white"/>
<path d="M70.4501 228.466C69.6073 228.457 68.7657 228.533 67.9381 228.693C67.9203 228.697 67.9045 228.707 67.8934 228.721C67.8824 228.735 67.8768 228.753 67.8778 228.771C67.8788 228.79 67.8862 228.807 67.8987 228.82C67.9112 228.833 67.928 228.841 67.9461 228.843C68.7869 228.888 69.6301 228.848 70.4631 228.725C70.494 228.719 70.5217 228.702 70.5411 228.677C70.5605 228.652 70.5704 228.621 70.5688 228.59C70.5672 228.558 70.5543 228.529 70.5325 228.506C70.5107 228.483 70.4815 228.469 70.4501 228.466V228.466Z" fill="white"/>
<path d="M0.993029 216.159C7.24015 218.275 13.2271 221.093 18.839 224.559C24.6618 228.261 29.7108 233.058 33.706 238.684C42.1188 250.388 48.5583 263.39 52.769 277.175C55.1189 284.805 56.5707 292.683 57.095 300.649C57.0989 300.708 57.0797 300.766 57.0414 300.811C57.0031 300.856 56.9488 300.884 56.89 300.889C56.8313 300.894 56.7728 300.877 56.727 300.839C56.6812 300.802 56.6518 300.749 56.645 300.69C54.8756 286.874 50.9516 273.421 45.016 260.82C39.194 248.471 31.84 235.326 20.598 227.149C14.476 222.697 7.59803 219.783 0.738032 216.7C0.380032 216.543 0.634029 216.035 0.993029 216.159Z" fill="#EBEBEB"/>
<path d="M48.289 268.366C43.9466 264.411 39.1815 260.947 34.08 258.037C26.145 253.629 19.694 250.728 17.726 246.876C15.758 243.024 21.885 238.023 21.885 238.023C21.885 238.023 13.785 241.996 10.42 239.079C7.055 236.162 0 215.722 0 215.722C0 215.722 18.708 222.378 30.39 235.862C42.072 249.346 48.289 268.366 48.289 268.366Z" fill="#EBEBEB"/>
<path d="M47.3149 264.154C37.9579 246.592 25.4729 230.704 8.36488 220.217C8.36343 220.216 8.36182 220.216 8.36031 220.217C8.3588 220.217 8.35748 220.218 8.35656 220.219C8.35563 220.221 8.35517 220.222 8.35523 220.224C8.35529 220.225 8.35586 220.227 8.35688 220.228C12.8247 223.101 17.0167 226.381 20.8789 230.028C17.3979 229.839 13.9287 230.572 10.8209 232.151C10.814 232.154 10.8078 232.159 10.8027 232.165C10.7976 232.17 10.7937 232.177 10.7912 232.184C10.7887 232.192 10.7877 232.199 10.7881 232.207C10.7886 232.215 10.7905 232.222 10.7939 232.229C10.7972 232.236 10.8019 232.242 10.8076 232.247C10.8134 232.252 10.82 232.256 10.8273 232.259C10.8345 232.261 10.8422 232.262 10.8499 232.262C10.8575 232.261 10.865 232.259 10.8719 232.256C14.1776 231.015 17.691 230.422 21.2209 230.507C21.2635 230.505 21.3043 230.489 21.3379 230.463C21.9452 231.039 22.5452 231.623 23.1379 232.215C21.3292 232.299 19.531 232.538 17.7629 232.928C17.754 232.931 17.7465 232.937 17.7418 232.945C17.7371 232.953 17.7355 232.963 17.7374 232.972C17.7392 232.981 17.7444 232.989 17.7519 232.995C17.7593 233 17.7686 233.003 17.7779 233.002C19.6489 232.65 21.5514 232.493 23.4549 232.534C26.584 235.703 29.5305 239.048 32.2799 242.552C31.022 242.376 29.7411 242.469 28.5219 242.825C28.503 242.829 28.4864 242.839 28.4756 242.855C28.4648 242.871 28.4608 242.891 28.4644 242.909C28.468 242.928 28.4789 242.945 28.4947 242.956C28.5106 242.966 28.53 242.971 28.5489 242.967C29.881 242.815 31.2251 242.796 32.5609 242.912C33.0729 243.563 33.5909 244.212 34.0929 244.872C30.2736 244.638 26.4412 245.009 22.7379 245.972C22.7322 245.973 22.7267 245.975 22.7219 245.979C22.717 245.982 22.7129 245.986 22.7096 245.991C22.7064 245.996 22.7041 246.001 22.7029 246.007C22.7018 246.012 22.7018 246.018 22.7029 246.024C22.704 246.03 22.7062 246.035 22.7094 246.04C22.7127 246.045 22.7168 246.049 22.7216 246.052C22.7265 246.055 22.7319 246.058 22.7376 246.059C22.7433 246.06 22.7492 246.06 22.7549 246.059C26.5938 245.309 30.5132 245.054 34.4169 245.302C34.8939 245.935 35.3459 246.586 35.8169 247.226C33.5389 247.17 31.2642 247.431 29.0579 248C28.9729 248.021 28.9969 248.155 29.0839 248.135C31.3816 247.636 33.7366 247.452 36.0839 247.59C38.0969 250.363 40.0239 253.197 41.8769 256.067C40.8881 255.89 39.8713 255.951 38.9109 256.245C38.9009 256.248 38.8925 256.255 38.8872 256.264C38.8818 256.272 38.8799 256.283 38.8819 256.293C38.8839 256.303 38.8896 256.312 38.8979 256.319C38.9062 256.325 38.9165 256.328 38.9269 256.327C39.999 256.243 41.0773 256.294 42.1369 256.478C43.8035 259.072 45.4102 261.688 46.9569 264.327C47.0799 264.553 47.4389 264.387 47.3149 264.154Z" fill="white"/>
<path d="M32.76 249.586C30.9225 249.461 29.0781 249.686 27.325 250.251C27.275 250.267 27.287 250.342 27.34 250.332C29.1262 250.031 30.9299 249.846 32.74 249.778C32.7617 249.774 32.7816 249.764 32.7967 249.748C32.8118 249.732 32.8212 249.711 32.8234 249.69C32.8257 249.668 32.8207 249.646 32.8093 249.627C32.7978 249.608 32.7805 249.594 32.76 249.586Z" fill="white"/>
<path d="M16.4409 228.183C15.6028 228.119 14.7598 228.168 13.9349 228.329C13.8349 228.344 13.8679 228.488 13.9629 228.477C14.7869 228.389 15.5999 228.42 16.4249 228.396C16.4521 228.396 16.4785 228.386 16.4986 228.368C16.5187 228.35 16.531 228.324 16.5331 228.297C16.5351 228.27 16.5267 228.243 16.5096 228.222C16.4925 228.201 16.4679 228.187 16.4409 228.183V228.183Z" fill="white"/>
<path d="M72.4189 326.446H30.1899L36.2109 282.338L37.7499 271.029H64.8589L66.3979 282.338L72.4189 326.446Z" fill="#DBDBDB"/>
<path d="M66.3969 282.339H36.2109L37.7499 271.03H64.8589L66.3969 282.339Z" fill="#C7C7C7"/>
<path d="M68.735 267.107H33.873V276.685H68.735V267.107Z" fill="#DBDBDB"/>
<path d="M3.34399 326.446H611.416" stroke="#263238" stroke-linecap="round" stroke-linejoin="round"/>
<path d="M309.38 400.981C467.743 400.981 596.122 386.914 596.122 369.561C596.122 352.208 467.743 338.141 309.38 338.141C151.017 338.141 22.6379 352.208 22.6379 369.561C22.6379 386.914 151.017 400.981 309.38 400.981Z" fill="#EBEBEB"/>
<path d="M242.631 364.353C240.3 365.143 173.487 365.377 170.931 363.776C169.959 363.176 169.357 353.445 168.964 341.669C168.879 339.126 168.806 336.5 168.748 333.832L163.33 298.196L207.995 297.909L212.211 333.553L212.04 341.393C212.04 341.393 237.661 352.745 240.273 354.802C242.885 356.859 244.963 363.566 242.631 364.353Z" fill="#EB9481"/>
<path d="M242.631 364.353C240.3 365.143 173.487 365.377 170.931 363.776C169.751 363.037 169.107 348.83 168.748 333.832L212.211 333.553L212.04 341.393C212.04 341.393 237.661 352.745 240.273 354.802C242.885 356.859 244.963 363.566 242.631 364.353Z" fill="white"/>
<path d="M242.631 364.353C240.3 365.143 173.487 365.377 170.931 363.776C169.959 363.176 169.357 353.445 168.964 341.669L212.04 341.393C212.04 341.393 237.661 352.745 240.273 354.802C242.885 356.859 244.963 363.566 242.631 364.353Z" fill="#A6A6A6"/>
<path d="M241.664 361.684C230.464 361.449 185.264 361.555 174.173 362.173C174.083 362.173 174.083 362.24 174.173 362.244C185.273 362.72 230.467 362.244 241.664 361.868C241.901 361.86 241.9 361.689 241.664 361.684Z" fill="#263238"/>
<path d="M235.969 352.413C234.724 352.385 233.486 352.616 232.335 353.09C231.183 353.565 230.143 354.274 229.279 355.172C227.713 356.775 226.824 358.92 226.797 361.161C226.797 361.227 226.922 361.228 226.932 361.161C227.305 358.942 228.387 356.903 230.017 355.352C231.646 353.8 233.735 352.819 235.97 352.555C235.989 352.555 236.007 352.547 236.02 352.534C236.033 352.52 236.041 352.502 236.041 352.483C236.04 352.465 236.033 352.447 236.019 352.433C236.006 352.42 235.988 352.413 235.969 352.413Z" fill="#263238"/>
<path d="M216.39 342.492C211.907 342.445 206.715 344.046 203.943 347.722C203.835 347.864 204.043 348.015 204.172 347.946C208.085 345.878 212.209 344.235 216.472 343.046C216.539 343.028 216.596 342.986 216.634 342.928C216.672 342.87 216.687 342.801 216.677 342.733C216.667 342.664 216.632 342.602 216.579 342.558C216.526 342.513 216.459 342.49 216.39 342.492V342.492Z" fill="#263238"/>
<path d="M219.856 343.829C215.372 343.782 210.181 345.383 207.408 349.059C207.3 349.201 207.508 349.352 207.637 349.283C211.55 347.215 215.674 345.572 219.937 344.383C220.004 344.365 220.061 344.323 220.099 344.265C220.137 344.208 220.152 344.138 220.142 344.07C220.132 344.002 220.098 343.94 220.045 343.895C219.992 343.851 219.925 343.827 219.856 343.829V343.829Z" fill="#263238"/>
<path d="M223.321 345.166C218.838 345.119 213.646 346.72 210.873 350.396C210.766 350.538 210.973 350.689 211.103 350.62C215.016 348.552 219.14 346.909 223.403 345.72C223.47 345.702 223.527 345.66 223.565 345.602C223.603 345.544 223.618 345.475 223.608 345.407C223.598 345.338 223.563 345.276 223.51 345.232C223.457 345.187 223.39 345.164 223.321 345.166Z" fill="#263238"/>
<path d="M226.786 346.503C222.303 346.456 217.112 348.057 214.339 351.733C214.231 351.875 214.439 352.026 214.568 351.957C218.481 349.889 222.605 348.246 226.868 347.057C226.935 347.039 226.992 346.997 227.03 346.939C227.068 346.881 227.083 346.812 227.073 346.744C227.063 346.675 227.028 346.613 226.975 346.569C226.922 346.524 226.855 346.501 226.786 346.503Z" fill="#263238"/>
<path d="M176.989 351.525C171.959 351.558 172.001 359.374 177.039 359.342C182.077 359.31 182.027 351.493 176.989 351.525Z" fill="#263238"/>
<path d="M221.193 330.513C218.917 328.639 216.065 330.488 214.673 332.447C212.345 335.853 210.954 339.811 210.639 343.924C210.637 343.942 210.64 343.961 210.647 343.978C210.653 343.995 210.664 344.011 210.678 344.023C210.691 344.036 210.708 344.045 210.726 344.05C210.743 344.055 210.762 344.055 210.78 344.052C210.798 344.136 210.836 344.215 210.89 344.282C210.945 344.348 211.014 344.401 211.093 344.436C211.171 344.471 211.257 344.487 211.343 344.483C211.429 344.478 211.513 344.454 211.587 344.411C214.771 342.192 218.45 340.211 220.858 337.085C222.264 335.258 223.345 332.285 221.193 330.513ZM215.726 340.06C214.187 341.189 212.601 342.236 211.104 343.422C211.825 341.164 212.659 338.944 213.604 336.771C214.077 335.725 214.621 334.713 215.231 333.741C216.2 332.257 220.586 328.495 221.05 333.37C221.308 336.058 217.561 338.713 215.726 340.06V340.06Z" fill="#263238"/>
<path d="M199.508 345.625C203.408 346.211 207.435 345.085 211.268 344.477C211.352 344.456 211.429 344.416 211.494 344.36C211.56 344.303 211.61 344.233 211.643 344.153C211.675 344.073 211.689 343.987 211.681 343.901C211.674 343.815 211.647 343.732 211.601 343.659C211.617 343.649 211.63 343.636 211.639 343.62C211.649 343.604 211.655 343.586 211.656 343.568C211.657 343.549 211.654 343.531 211.647 343.514C211.64 343.497 211.628 343.482 211.614 343.47C208.536 340.724 204.789 338.835 200.75 337.994C198.388 337.548 195.05 338.194 194.71 341.121C194.388 343.89 197.228 345.283 199.508 345.625ZM196.792 343.083C193.746 339.248 199.515 338.918 201.243 339.316C202.357 339.593 203.45 339.946 204.515 340.372C206.704 341.283 208.845 342.303 210.931 343.43C209.031 343.613 207.161 343.958 205.268 344.211C203.013 344.513 198.472 345.198 196.792 343.083Z" fill="#263238"/>
<path d="M97.698 133.466C97.698 133.466 149.568 221.706 150.957 227.901C153.091 237.42 164.404 331.436 164.404 331.436L218.375 330.464C218.375 330.464 209.075 247.572 200.263 220.264C193.917 200.594 148.141 135.355 148.141 135.355L97.698 133.466Z" fill="#37474F"/>
<path d="M213.467 322.192C205.716 322.136 178.251 321.827 167.934 322.792C167.855 322.8 167.857 322.93 167.934 322.941C171.485 323.451 205.722 322.657 213.469 322.409C213.483 322.409 213.497 322.406 213.51 322.4C213.524 322.395 213.535 322.387 213.545 322.377C213.555 322.366 213.563 322.354 213.569 322.341C213.574 322.328 213.577 322.314 213.576 322.3C213.576 322.285 213.573 322.271 213.568 322.258C213.562 322.245 213.554 322.233 213.544 322.223C213.534 322.213 213.522 322.205 213.509 322.2C213.495 322.195 213.481 322.192 213.467 322.192Z" fill="#263238"/>
<path d="M106.552 141.566C109.952 146.897 113.537 152.117 117.012 157.402C120.487 162.687 123.954 167.984 127.372 173.308C134.205 183.948 140.878 194.685 147.393 205.519C150.556 210.509 153.262 215.773 155.479 221.249C157.509 226.744 159.033 232.413 160.032 238.185C161.089 243.978 161.786 249.826 162.444 255.672C163.144 261.897 163.839 268.123 164.529 274.349L168.795 312.565C168.97 314.128 169.137 315.691 169.295 317.255C169.318 317.484 168.908 317.53 168.879 317.3C167.291 304.642 165.972 291.946 164.529 279.271L162.38 260.341C161.712 254.474 161.08 248.6 160.167 242.763C159.327 237.012 158.057 231.332 156.367 225.771C154.498 220.007 151.996 214.469 148.906 209.257C142.651 198.471 136.033 187.868 129.411 177.292C122.733 166.626 115.999 155.992 109.011 145.51C108.149 144.216 107.279 142.93 106.385 141.656C106.315 141.558 106.486 141.466 106.552 141.566Z" fill="#263238"/>
<path d="M114.702 369.558C112.241 369.407 48.7021 343.664 46.9351 341.225C46.8592 341.081 46.8246 340.918 46.8351 340.755C46.8471 338.57 51.2461 330.923 54.9241 320.889C55.1551 320.247 56.7941 317.27 59.0701 313.254C65.3271 302.226 76.3961 283.332 76.3961 283.332L117.925 299.832L98.0481 329.588L94.9541 336.788C94.9541 336.788 114.444 356.93 116.09 359.813C117.736 362.696 117.154 369.698 114.702 369.558Z" fill="#EB9481"/>
<path d="M114.702 369.558C112.241 369.407 48.7021 343.664 46.9351 341.225C46.8592 341.081 46.8246 340.918 46.8351 340.755C46.8471 338.57 51.2461 330.923 54.9241 320.889C55.1551 320.247 56.7941 317.27 59.0701 313.254L98.0481 329.589L94.9541 336.789C94.9541 336.789 114.444 356.931 116.09 359.814C117.736 362.697 117.154 369.698 114.702 369.558Z" fill="white"/>
<path d="M114.698 369.553C112.24 369.41 48.7031 343.664 46.9361 341.222C46.2621 340.3 49.1021 331.622 54.9221 320.891L94.9561 336.791C94.9561 336.791 114.447 356.926 116.097 359.812C117.747 362.698 117.155 369.696 114.698 369.553Z" fill="#A6A6A6"/>
<path d="M114.802 366.716C104.508 362.296 62.5689 345.438 52.0569 341.851C51.9719 341.822 51.9489 341.879 52.0309 341.916C62.1389 346.521 104.213 363.038 114.731 366.887C114.956 366.966 115.019 366.809 114.802 366.716Z" fill="#263238"/>
<path d="M113.001 355.986C111.857 355.493 110.624 355.242 109.378 355.25C108.132 355.258 106.902 355.525 105.765 356.033C103.712 356.931 102.083 358.586 101.217 360.653C101.195 360.716 101.308 360.763 101.343 360.703C102.521 358.786 104.289 357.302 106.382 356.475C108.475 355.649 110.78 355.523 112.95 356.117C112.967 356.124 112.987 356.123 113.004 356.116C113.021 356.108 113.034 356.094 113.041 356.077C113.048 356.06 113.047 356.04 113.04 356.023C113.032 356.006 113.018 355.993 113.001 355.986V355.986Z" fill="#263238"/>
<path d="M98.574 339.444C94.436 337.719 89.023 337.255 85.074 339.623C84.921 339.714 85.053 339.93 85.202 339.916C89.6048 339.466 94.0431 339.49 98.441 339.985C98.5079 339.991 98.5747 339.972 98.6292 339.933C98.6838 339.894 98.7226 339.837 98.7387 339.771C98.7547 339.706 98.7469 339.637 98.7167 339.577C98.6865 339.517 98.6359 339.47 98.574 339.444Z" fill="#263238"/>
<path d="M101.28 341.984C97.142 340.259 91.729 339.795 87.78 342.162C87.627 342.254 87.7601 342.47 87.9091 342.455C92.3115 342.005 96.7495 342.029 101.147 342.524C101.214 342.531 101.282 342.513 101.337 342.474C101.392 342.435 101.431 342.377 101.447 342.312C101.463 342.246 101.455 342.177 101.425 342.117C101.394 342.057 101.343 342.009 101.28 341.984V341.984Z" fill="#263238"/>
<path d="M103.996 344.523C99.8569 342.798 94.4439 342.334 90.4959 344.701C90.3429 344.793 90.4759 345.009 90.6249 344.995C95.0273 344.545 99.4653 344.568 103.863 345.064C103.93 345.07 103.997 345.051 104.051 345.012C104.106 344.973 104.145 344.915 104.161 344.85C104.177 344.785 104.169 344.716 104.139 344.656C104.108 344.596 104.058 344.549 103.996 344.523V344.523Z" fill="#263238"/>
<path d="M106.706 347.066C102.568 345.341 97.155 344.877 93.206 347.245C93.053 347.336 93.185 347.552 93.335 347.538C97.7375 347.088 102.175 347.112 106.573 347.607C106.64 347.613 106.707 347.594 106.761 347.555C106.816 347.516 106.855 347.459 106.871 347.393C106.887 347.328 106.879 347.259 106.849 347.199C106.819 347.139 106.768 347.092 106.706 347.066Z" fill="#263238"/>
<path d="M58.6609 333.037C53.9869 331.18 51.0938 338.437 55.7748 340.301C60.4558 342.165 63.3439 334.897 58.6609 333.037Z" fill="#263238"/>
<path d="M107.52 330.142C106.113 327.551 102.776 328.195 100.75 329.488C97.3148 331.772 94.5407 334.92 92.7061 338.615C92.6974 338.631 92.6928 338.649 92.6924 338.668C92.692 338.686 92.696 338.705 92.704 338.721C92.712 338.738 92.7237 338.752 92.7383 338.764C92.7529 338.775 92.77 338.783 92.7881 338.786C92.7581 339.119 93.0101 339.511 93.4021 339.421C97.1861 338.559 101.338 338.106 104.744 336.108C106.733 334.942 108.85 332.592 107.52 330.142ZM98.8711 336.942C97.0201 337.411 95.1581 337.787 93.3251 338.324C94.841 336.502 96.4481 334.758 98.1401 333.098C98.9709 332.306 99.8546 331.571 100.785 330.898C102.24 329.885 107.718 328.044 106.318 332.737C105.546 335.325 101.08 336.381 98.8711 336.941V336.942Z" fill="#263238"/>
<path d="M81.749 336.015C85.149 338.023 89.3 338.489 93.081 339.363C93.473 339.454 93.726 339.063 93.697 338.729C93.7152 338.726 93.7324 338.718 93.7471 338.707C93.7618 338.696 93.7737 338.681 93.7818 338.664C93.7898 338.648 93.7939 338.63 93.7936 338.611C93.7933 338.593 93.7886 338.574 93.78 338.558C91.9565 334.858 89.1916 331.702 85.763 329.408C83.742 328.108 80.406 327.454 78.992 330.04C77.654 332.487 79.764 334.843 81.749 336.015ZM80.186 332.64C78.8 327.94 84.272 329.801 85.724 330.818C86.6522 331.493 87.5336 332.23 88.362 333.024C90.0493 334.689 91.6513 336.438 93.162 338.265C91.331 337.722 89.47 337.341 87.621 336.865C85.416 336.299 80.949 335.23 80.186 332.64Z" fill="#263238"/>
<path d="M101.255 327.923L54.77 309.153C54.77 309.153 112.406 224.408 112.833 218.1C113.21 212.513 87.895 163.892 86.897 149.722C85.82 134.43 93.184 122.594 101.275 115.249L149.23 135.633C149.23 135.633 144.169 143.733 136.197 148.233C136.197 148.233 160.789 204.433 159.397 221.714C157.991 239.092 101.255 327.923 101.255 327.923Z" fill="#37474F"/>
<path d="M103.32 319.083C96.5979 316.192 98.5679 316.927 91.8129 314.112C88.5129 312.734 66.7799 303.702 63.4719 302.958C63.4554 302.957 63.4388 302.961 63.4246 302.969C63.4104 302.978 63.3994 302.991 63.3932 303.006C63.3869 303.022 63.3858 303.039 63.3899 303.055C63.394 303.071 63.4031 303.085 63.4159 303.096C66.3079 304.867 88.1899 313.519 91.5209 314.833C98.3279 317.517 96.4029 316.672 103.24 319.28C103.253 319.285 103.267 319.288 103.281 319.288C103.295 319.288 103.308 319.285 103.321 319.279C103.334 319.274 103.346 319.266 103.356 319.256C103.365 319.246 103.373 319.234 103.378 319.221C103.384 319.209 103.386 319.195 103.386 319.181C103.386 319.167 103.383 319.153 103.378 319.14C103.372 319.127 103.365 319.116 103.355 319.106C103.345 319.096 103.333 319.088 103.32 319.083Z" fill="#263238"/>
<path d="M144.091 147.209C139.099 148.37 134.214 149.955 129.491 151.945C129.454 151.96 129.424 151.988 129.407 152.024C129.391 152.06 129.389 152.101 129.402 152.138C129.415 152.176 129.441 152.207 129.477 152.225C129.512 152.243 129.553 152.247 129.591 152.236C134.491 150.805 139.478 149.468 144.291 147.777C144.366 147.75 144.428 147.695 144.462 147.623C144.497 147.551 144.501 147.468 144.475 147.393C144.448 147.318 144.393 147.256 144.321 147.221C144.249 147.187 144.166 147.182 144.091 147.209V147.209Z" fill="#263238"/>
<path d="M138.402 145.235C137.935 146.063 137.524 146.921 137.171 147.804C136.825 148.475 136.611 149.206 136.541 149.958C136.541 150.102 136.741 150.137 136.825 150.049C137.328 149.439 137.733 148.754 138.025 148.019C138.433 147.227 138.859 146.443 139.243 145.641C139.504 145.108 138.693 144.727 138.402 145.235Z" fill="#263238"/>
<path d="M138.98 140.727C139.274 139.989 139.57 139.252 139.88 138.521C140.201 137.764 140.58 137.021 140.836 136.239C140.877 136.116 141.071 136.198 141.022 136.322C140.73 137.061 140.538 137.849 140.303 138.609C140.068 139.369 139.818 140.131 139.566 140.889C139.096 142.3 138.521 143.701 137.915 145.062C138.702 145.103 139.488 144.967 140.215 144.662C140.947 144.197 141.514 143.515 141.839 142.711C142.261 141.885 142.65 141.041 143.086 140.223C143.61 139.336 144.055 138.405 144.416 137.44C144.456 137.316 144.647 137.399 144.603 137.523C143.951 139.575 143.095 141.556 142.048 143.436C141.606 144.169 141.248 144.936 140.435 145.219C139.545 145.467 138.613 145.529 137.698 145.402C137.586 145.433 137.441 145.361 137.48 145.225C137.904 143.701 138.404 142.2 138.98 140.727V140.727Z" fill="#263238"/>
<path d="M136.945 150.066C138.645 153.679 140.145 157.279 141.745 160.879C143.302 164.397 144.759 167.955 146.175 171.532C149.035 178.759 151.597 186.118 153.844 193.558C154.956 197.24 155.977 200.948 156.906 204.681C157.916 208.413 158.658 212.212 159.126 216.049C159.538 219.876 159.211 223.746 158.163 227.449C157.062 231.107 155.646 234.662 153.931 238.075C152.889 240.238 152.531 239.946 153.031 238.854C154.462 235.754 158.21 226.368 157.938 218.476C157.711 214.675 157.118 210.905 156.165 207.218C155.287 203.44 154.295 199.69 153.214 195.966C151.084 188.629 148.554 181.437 145.951 174.257C144.493 170.234 142.928 166.252 141.451 162.238C139.96 158.193 138.423 154.554 136.769 150.138C136.767 150.117 136.772 150.096 136.784 150.078C136.795 150.06 136.811 150.046 136.831 150.038C136.85 150.03 136.872 150.028 136.892 150.033C136.913 150.039 136.931 150.05 136.945 150.066V150.066Z" fill="#263238"/>
<path d="M101.65 138.133C102.483 137.825 103.638 138.333 104.487 138.478C106.654 138.845 108.862 138.919 111.049 138.697C112.142 138.668 113.213 138.385 114.178 137.87C115.759 136.719 117.112 135.282 118.166 133.634C119.435 131.956 120.481 130.12 121.277 128.173C121.32 128.056 121.488 128.136 121.452 128.252C121.102 129.366 120.842 130.49 120.397 131.58C119.964 132.602 119.45 133.588 118.862 134.529C117.897 136.418 116.474 138.034 114.722 139.229C112.793 140.329 110.308 140.264 108.157 140.14C106.913 140.068 105.676 139.903 104.457 139.646C103.577 139.461 102.097 139.32 101.535 138.546C101.51 138.513 101.494 138.474 101.486 138.434C101.479 138.393 101.481 138.351 101.492 138.311C101.503 138.272 101.523 138.235 101.55 138.204C101.578 138.173 101.612 138.149 101.65 138.133V138.133Z" fill="#263238"/>
<path d="M68.04 300.293C75.6807 288.73 83.1807 277.075 90.54 265.33C97.9227 253.556 105.181 241.706 112.315 229.78C114.024 226.93 116 224.08 117.1 220.924C118.3 217.491 117.617 214.167 116.533 210.809C114.5 204.664 112.118 198.64 109.4 192.766C106.72 186.858 103.833 181.047 100.994 175.214C98.178 169.43 95.181 163.626 93.044 157.546C91.004 151.739 90.228 145.717 91.794 139.694C93.347 133.718 96.708 128.352 100.218 123.344C101.144 122.023 102.087 120.714 103.018 119.395C103.089 119.295 103.241 119.416 103.167 119.516C99.299 124.737 95.527 130.262 93.259 136.393C92.0995 139.416 91.4513 142.611 91.341 145.847C91.3217 149.13 91.8315 152.394 92.851 155.514C94.732 161.593 97.701 167.35 100.468 173.062C103.296 178.902 106.2 184.705 108.927 190.593C111.715 196.499 114.192 202.547 116.346 208.713C117.285 211.465 118.332 214.344 118.27 217.294C118.202 220.524 116.66 223.432 115.064 226.154C108.111 238.01 100.895 249.717 93.589 261.354C86.2557 273.038 78.7864 284.636 71.181 296.148C70.2237 297.6 69.264 299.051 68.302 300.5C68.18 300.684 67.921 300.472 68.04 300.293Z" fill="#263238"/>
<path d="M151.893 81.734C156.221 91.234 178.086 104.327 188.327 105.734C195.694 106.746 218.066 107.094 225.738 105.923C234.723 104.55 227.858 80.292 222.545 80.913C207.945 82.62 195.55 84.52 191.652 84.52C186.894 84.52 161.14 76.254 158.037 75.091C150.443 72.246 149.438 76.346 151.893 81.734Z" fill="#EB9481"/>
<path d="M152.028 84.25C157.507 92.358 175.728 105.615 175.728 105.615L178.255 100.015L186.621 81.5C186.621 81.5 169.892 76.221 158.883 73.87C157.588 73.5755 156.27 73.3879 154.944 73.309C147.913 72.928 147.303 77.274 152.028 84.25Z" fill="#FFC727"/>
<path d="M152.028 84.25C157.507 92.358 175.728 105.615 175.728 105.615L178.255 100.015C171.462 92.13 160.976 80.179 154.944 73.309C147.913 72.928 147.303 77.274 152.028 84.25Z" fill="#263238"/>
<path d="M172.44 101.872C173.828 98.472 180.013 84.738 181.548 81.857C181.655 81.657 181.806 81.673 181.722 81.895C179.038 88.7302 175.985 95.4144 172.575 101.918C172.537 102 172.405 101.958 172.44 101.872Z" fill="#263238"/>
<path d="M219.867 81.18C228.753 80.014 239.744 78.022 249.051 81.973C250.096 82.3855 250.973 83.1374 251.539 84.108C255.739 85.808 256.202 88.299 256.202 88.299C259.633 91.079 259.754 93.699 259.754 93.699C259.754 93.699 264.667 95.745 263.923 98.919C263.1 102.482 256.361 98.911 251.455 99.214C240.214 99.907 224.428 104.037 221.206 104.559L219.867 81.18Z" fill="#EB9481"/>
<path d="M239.164 91.657C242.451 91.4162 245.751 91.3998 249.04 91.608C252.624 92.0598 256.168 92.7778 259.645 93.756C259.667 93.7612 259.69 93.7581 259.709 93.7473C259.728 93.7364 259.743 93.7187 259.75 93.6975C259.757 93.6764 259.755 93.6535 259.746 93.6333C259.736 93.6132 259.72 93.5973 259.699 93.589C253.171 91.0272 246.065 90.307 239.155 91.507C238.997 91.535 238.997 91.666 239.164 91.657Z" fill="#263238"/>
<path d="M237.759 84.933C240.99 84.977 246.667 85.092 256.168 88.402C256.199 88.412 256.227 88.363 256.195 88.347C250.501 85.4699 244.119 84.2345 237.762 84.779C237.559 84.793 237.545 84.93 237.759 84.933Z" fill="#263238"/>
<path d="M237.072 81.305C242.562 81.59 245.988 82.465 251.51 84.124C251.542 84.134 251.567 84.082 251.533 84.068C245.455 81.523 242.961 81.288 237.055 81.115C236.853 81.109 236.858 81.294 237.072 81.305Z" fill="#263238"/>
<path d="M237.962 100.902C236.534 101.573 236.876 102.327 239.608 102.959C242.371 103.606 253.692 103.778 253.292 107.732C252.892 111.686 236.882 111.193 232.413 109.791C227.944 108.389 221.206 104.555 221.206 104.555C224.342 104.026 231.825 102.018 237.962 100.902Z" fill="#EB9481"/>
<path d="M163.78 96.88C163.711 98.588 163.543 100.328 163.303 102.051C163.327 101.989 163.353 101.929 163.376 101.867C163.71 100.967 164.033 100.043 164.437 99.174C164.459 99.128 164.537 99.14 164.529 99.196C164.332 100.15 164.042 101.082 163.663 101.979C163.491 102.404 163.316 102.829 163.131 103.25C163.007 104.018 162.87 104.781 162.714 105.532C162.419 106.962 161.068 113.045 160.761 114.073C160.696 114.29 160.439 114.24 160.455 113.999C160.529 112.879 161.662 106.543 161.891 105.109C162.336 102.327 162.931 99.5716 163.673 96.854C163.693 96.791 163.78 96.821 163.78 96.88Z" fill="#263238"/>
<path d="M153.358 142.341C150.69 143.716 147.25 145.847 131.752 142.795C130.783 142.595 129.809 142.36 128.832 142.07C114.298 137.704 96.8651 120.612 95.8821 119.407C95.8821 119.407 118.966 81.976 148.497 70.207C152.147 68.753 158.19 71.557 161.535 75.048C162.735 76.295 165.322 85.478 164.327 92.921C163.332 100.364 156.044 140.979 153.358 142.341Z" fill="#FFC727"/>
<path d="M151.295 92.583L150.646 97.245" stroke="white" stroke-width="0.5" stroke-miterlimit="10"/>
<path d="M141.229 118.073L140.58 122.735" stroke="white" stroke-width="0.5" stroke-miterlimit="10"/>
<path d="M124.116 98.809L123.467 103.471" stroke="white" stroke-width="0.5" stroke-miterlimit="10"/>
<path d="M157.89 116.78L157.241 121.442" stroke="white" stroke-width="0.5" stroke-miterlimit="10"/>
<path d="M135.916 95.502L140.578 96.151" stroke="white" stroke-width="0.5" stroke-miterlimit="10"/>
<path d="M116.496 113.919L121.158 114.568" stroke="white" stroke-width="0.5" stroke-miterlimit="10"/>
<path d="M139.343 133.85L144.005 134.499" stroke="white" stroke-width="0.5" stroke-miterlimit="10"/>
<path d="M110.509 126.61L115.171 127.259" stroke="white" stroke-width="0.5" stroke-miterlimit="10"/>
<path d="M151.149 74.668L155.811 75.317" stroke="white" stroke-width="0.5" stroke-miterlimit="10"/>
<path d="M145.505 81.0471L141.749 83.8851" stroke="white" stroke-width="0.5" stroke-miterlimit="10"/>
<path d="M114.71 99.173L110.954 102.011" stroke="white" stroke-width="0.5" stroke-miterlimit="10"/>
<path d="M153.155 107.36L149.4 110.198" stroke="white" stroke-width="0.5" stroke-miterlimit="10"/>
<path d="M128.258 123.038L124.502 125.876" stroke="white" stroke-width="0.5" stroke-miterlimit="10"/>
<path d="M162.697 85.9351L158.941 88.7731" stroke="white" stroke-width="0.5" stroke-miterlimit="10"/>
<path d="M162.175 104.109L159.337 100.353" stroke="white" stroke-width="0.5" stroke-miterlimit="10"/>
<path d="M106.682 116.623L103.844 112.867" stroke="white" stroke-width="0.5" stroke-miterlimit="10"/>
<path d="M155.43 131.521L152.592 127.765" stroke="white" stroke-width="0.5" stroke-miterlimit="10"/>
<path d="M131 89.069L128.162 85.313" stroke="white" stroke-width="0.5" stroke-miterlimit="10"/>
<path d="M131.431 139.998L128.593 136.242" stroke="white" stroke-width="0.5" stroke-miterlimit="10"/>
<path d="M135.585 109.955L132.747 106.199" stroke="white" stroke-width="0.5" stroke-miterlimit="10"/>
<path d="M156.107 85.014C152.344 84.314 148.796 76.525 148.351 71.285C148.322 70.926 150.112 68.073 152.124 64.504C153.336 62.332 154.635 59.887 155.659 57.569C155.866 57.092 157.1 58.682 157.1 58.682L159.779 60.731L168.634 67.522C166.525 70.0533 164.733 72.8333 163.298 75.8C163.161 76.1229 163.054 76.4576 162.978 76.8C162.964 76.846 162.953 76.9 162.93 76.967C162.426 78.898 159.744 85.688 156.107 85.014Z" fill="#EB9481"/>
<path d="M162.98 76.795C162.966 76.841 162.955 76.895 162.932 76.962C162.408 76.81 161.896 76.6157 161.403 76.381C151.712 71.839 155.987 58.855 155.987 58.855L159.781 60.731L168.636 67.522C166.526 70.0533 164.734 72.8333 163.3 75.8C163.163 76.1213 163.056 76.4543 162.98 76.795V76.795Z" fill="#263238"/>
<path d="M178.798 39.848C178.798 39.848 183.225 42.659 183.254 47.658C183.283 52.657 181.292 57.547 180.83 57.722C180.368 57.897 178.798 39.848 178.798 39.848Z" fill="#263238"/>
<path d="M156.823 42.442C154.161 47.697 154.296 64.242 157.623 68.506C162.442 74.687 171.723 76.817 177.329 70.706C182.761 64.782 182.204 43.222 178.361 39.206C172.698 33.286 160.756 34.679 156.823 42.442Z" fill="#EB9481"/>
<path d="M170.942 55.698C170.932 55.655 170.855 55.753 170.857 55.798C170.919 56.925 170.8 58.226 169.789 58.624C169.757 58.636 169.762 58.693 169.8 58.687C171.04 58.484 171.18 56.755 170.942 55.698Z" fill="#263238"/>
<path d="M169.907 54.543C168.091 54.443 168.033 58.089 169.716 58.177C171.373 58.266 171.43 54.624 169.907 54.543Z" fill="#263238"/>
<path d="M177.112 55.656C177.121 55.613 177.199 55.711 177.197 55.756C177.144 56.883 177.272 58.183 178.286 58.574C178.318 58.586 178.313 58.6421 178.276 58.6361C177.034 58.4421 176.88 56.715 177.112 55.656Z" fill="#263238"/>
<path d="M178.138 54.494C179.954 54.385 180.038 58.025 178.356 58.126C176.7 58.226 176.615 54.585 178.138 54.494Z" fill="#263238"/>
<path d="M168.767 51.772C169.248 51.639 169.721 51.4808 170.185 51.298C170.707 51.2006 171.183 50.9339 171.538 50.539C171.626 50.3932 171.662 50.2224 171.643 50.0535C171.623 49.8845 171.548 49.7268 171.429 49.605C171.158 49.3993 170.837 49.2698 170.5 49.2297C170.162 49.1896 169.82 49.2405 169.508 49.377C168.834 49.5557 168.251 49.9793 167.873 50.565C167.794 50.7033 167.758 50.8615 167.767 51.0204C167.777 51.1792 167.832 51.3319 167.927 51.4598C168.022 51.5876 168.151 51.6852 168.301 51.7407C168.45 51.7961 168.612 51.807 168.767 51.772V51.772Z" fill="#263238"/>
<path d="M179.4 53.386C178.913 53.2779 178.432 53.1444 177.959 52.986C177.432 52.9168 176.943 52.6757 176.567 52.3C176.472 52.1589 176.426 51.9903 176.437 51.8205C176.448 51.6507 176.514 51.4892 176.626 51.361C176.886 51.1417 177.199 50.9956 177.535 50.9379C177.87 50.8803 178.214 50.9131 178.532 51.033C179.216 51.1748 179.823 51.5671 180.232 52.133C180.318 52.2672 180.364 52.4236 180.363 52.5832C180.362 52.7428 180.314 52.8985 180.226 53.0315C180.137 53.1644 180.012 53.2687 179.866 53.3317C179.719 53.3947 179.557 53.4135 179.4 53.386V53.386Z" fill="#263238"/>
<path d="M168.374 66.383C168.64 66.652 168.904 67.02 169.312 67.06C169.732 67.0592 170.147 66.9692 170.529 66.796C170.537 66.793 170.546 66.7925 170.554 66.7947C170.562 66.7969 170.569 66.8016 170.575 66.8081C170.58 66.8147 170.583 66.8227 170.583 66.8311C170.584 66.8396 170.582 66.8479 170.577 66.855C170.412 67.0741 170.192 67.2445 169.938 67.3482C169.684 67.4519 169.407 67.485 169.136 67.444C168.907 67.3807 168.702 67.2507 168.547 67.0708C168.392 66.8908 168.294 66.6688 168.265 66.433C168.249 66.366 168.335 66.344 168.374 66.383Z" fill="#263238"/>
<path d="M174.923 61.566C174.923 61.566 174.971 63.254 174.886 64.038C173.353 63.8774 171.804 63.933 170.286 64.203C169.929 64.281 169.964 63.991 170.377 63.803C171.6 63.2424 172.963 63.0616 174.29 63.284C174.369 63.073 174.168 60.684 174.29 60.691C174.894 60.8123 175.478 61.0141 176.028 61.291C176.028 57.772 175.468 54.282 175.522 50.778C175.522 50.7523 175.532 50.7275 175.549 50.7082C175.566 50.6888 175.59 50.6763 175.615 50.6729C175.641 50.6695 175.666 50.6755 175.688 50.6896C175.71 50.7038 175.725 50.7252 175.732 50.75C176.45 54.4731 176.794 58.2586 176.758 62.05C176.773 62.495 175.223 61.729 174.923 61.566Z" fill="#263238"/>
<path d="M172.674 63.434C172.271 64.4799 171.533 65.3624 170.574 65.943C169.062 66.555 168.543 65.187 170.087 63.977C170.883 63.5612 171.778 63.3733 172.674 63.434V63.434Z" fill="#263238"/>
<path d="M171.099 65.635C170.939 65.7645 170.76 65.869 170.569 65.945C169.179 66.505 168.629 65.395 169.749 64.275C170.509 64.335 171.339 64.615 171.099 65.635Z" fill="#FF99BA"/>
<path d="M156.058 56.597C157.886 57.158 159.99 51.66 160.585 49.545C161.109 47.682 161.714 41.772 161.803 41.369C161.892 40.966 169.775 46.599 174.384 45.252C178.993 43.905 182.073 39.768 182.136 37.838C182.199 35.908 176.477 31.007 171.525 30.756C166.573 30.505 159.871 36.799 159.871 36.799C160.682 35.8787 161.417 34.8949 162.071 33.857C161.994 33.634 158.795 34.912 158.206 37.191C158.206 37.191 158.839 34.331 158.597 34.277C158.355 34.223 155.869 36.677 156.43 38.531C156.43 38.531 153.554 41.022 153.288 43.753C153.022 46.484 153.91 55.938 156.058 56.597Z" fill="#263238"/>
<path d="M177.659 44.289C176.294 45.0239 174.826 45.5491 173.305 45.847C171.608 45.9922 169.902 45.7175 168.336 45.047C166.753 44.4291 165.281 43.5581 163.978 42.468C162.825 41.519 161.803 40.374 160.572 39.529C160.264 39.317 159.907 39.761 160.097 40.044C162.153 42.9393 165.085 45.0973 168.46 46.2C170.027 46.713 171.701 46.8096 173.317 46.4804C174.932 46.1511 176.435 45.4073 177.676 44.322C177.692 44.312 177.68 44.278 177.659 44.289Z" fill="#263238"/>
<path d="M157.971 56.1071C157.971 56.1071 155.134 50.345 152.571 51.28C150.008 52.215 151.586 60.175 154.199 61.633C154.521 61.843 154.883 61.9857 155.261 62.0524C155.64 62.1191 156.028 62.1086 156.403 62.0213C156.777 61.934 157.13 61.7719 157.441 61.5447C157.751 61.3175 158.012 61.0298 158.208 60.699L157.971 56.1071Z" fill="#EB9481"/>
<path d="M153.08 53.55C153.071 53.5486 153.062 53.5504 153.054 53.555C153.046 53.5596 153.041 53.5668 153.037 53.5753C153.034 53.5838 153.034 53.5931 153.037 53.6017C153.04 53.6102 153.046 53.6174 153.054 53.622C154.876 54.708 155.622 56.668 156.054 58.646C155.971 58.4341 155.843 58.2426 155.679 58.0849C155.515 57.9272 155.318 57.807 155.103 57.7326C154.888 57.6582 154.659 57.6313 154.433 57.6538C154.206 57.6763 153.987 57.7477 153.791 57.863C153.735 57.891 153.771 57.978 153.828 57.975C154.187 57.9187 154.554 57.9751 154.879 58.1363C155.204 58.2975 155.471 58.5556 155.643 58.875C155.928 59.4105 156.155 59.9751 156.319 60.559C156.383 60.747 156.711 60.702 156.676 60.492L156.667 60.444C157.096 57.972 155.704 54.209 153.08 53.55Z" fill="#263238"/>
<path d="M139.219 81.824C137.264 93.152 149.495 131.324 157.37 138.454C169.081 149.054 190.734 156.029 198.58 158.297C201.999 159.286 211.46 135.223 208.001 133.638C200.591 130.244 177.571 123.064 175.401 121.22C173.231 119.376 160.001 100.345 154.125 89.3681C146.239 74.6411 140.208 76.094 139.219 81.824Z" fill="#EB9481"/>
<path d="M202.18 131.521C202.18 131.521 212.391 134.121 218.988 136.139C222.669 137.263 228.807 139.754 231.133 141.817C234.612 144.903 247.193 160.03 243.591 163.16C240.331 165.992 231.172 151.623 231.172 151.623C231.172 151.623 241.696 165.305 237.142 167.995C232.588 170.685 224.4 153.073 224.4 153.073C224.4 153.073 234.9 167.373 229.763 169.403C225.883 170.938 217.568 155.403 217.568 155.403C217.568 155.403 226.505 167.757 222.583 169.503C218.249 171.436 209.674 157.58 209.674 157.58C198.956 160.35 192.719 157.28 188.543 154.575C187.527 153.925 202.18 131.521 202.18 131.521Z" fill="#EB9481"/>
<path d="M227.831 146.658C229.125 148.22 230.446 149.793 231.597 151.465C232.748 153.137 233.841 154.851 234.831 156.623C236.172 158.913 237.246 161.349 238.031 163.884C236.309 159.484 232.282 153.438 231.131 151.765C229.98 150.092 228.918 148.37 227.77 146.699C227.737 146.657 227.8 146.621 227.831 146.658Z" fill="#263238"/>
<path d="M221.717 150.704C223.935 152.463 228.589 159.004 230.383 163.395C230.459 163.579 230.36 163.564 230.251 163.395C228.845 161.228 223.168 152.825 221.665 150.737C221.642 150.705 221.687 150.68 221.717 150.704Z" fill="#263238"/>
<path d="M215.846 153.234C218.611 156.131 220.79 159.534 222.266 163.256C222.342 163.438 222.197 163.41 222.092 163.238C220.021 159.866 218.42 157.206 215.74 153.322C215.698 153.266 215.786 153.175 215.846 153.234Z" fill="#263238"/>
<path d="M150.349 82.657C141.218 69.743 135.762 74.531 137.593 88.548C139.305 101.657 143.9 117.274 143.9 117.274L166.942 106.114C166.942 106.114 156.192 90.922 150.349 82.657Z" fill="#FFC727"/>
<path d="M155.929 87.735L156.734 92.373" stroke="white" stroke-width="0.5" stroke-miterlimit="10"/>
<path d="M142.296 95.586L146.934 94.781" stroke="white" stroke-width="0.5" stroke-miterlimit="10"/>
<path d="M142.89 75.505L140.179 79.354" stroke="white" stroke-width="0.5" stroke-miterlimit="10"/>
<path d="M162.331 101.617L159.621 105.465" stroke="white" stroke-width="0.5" stroke-miterlimit="10"/>
<path d="M146.39 109.45L142.542 106.739" stroke="white" stroke-width="0.5" stroke-miterlimit="10"/>
<path d="M153.412 86.5441C154.638 88.2311 155.912 89.8851 157.174 91.5441C156.853 90.7061 156.574 89.8601 156.327 88.9941C156.325 88.9861 156.326 88.9778 156.33 88.9706C156.334 88.9635 156.341 88.9582 156.349 88.9558C156.356 88.9534 156.365 88.954 156.372 88.9576C156.379 88.9612 156.385 88.9674 156.388 88.9751C156.644 89.6391 156.928 90.292 157.173 90.959C157.291 91.2797 157.411 91.5997 157.534 91.9191L157.615 92.1241C158.6 93.4171 159.581 94.7131 160.529 96.0331C161.66 97.6081 162.752 99.2091 163.849 100.808C164.983 102.461 166.057 104.398 167.249 106.008C166.54 106.452 165.791 106.826 165.01 107.125C164.805 107.239 164.666 107.04 164.884 106.974C165.084 106.913 166.784 105.869 166.803 105.849C165.703 104.237 164.433 102.749 163.285 101.17C162.137 99.5911 160.996 98.036 159.885 96.442C157.636 93.206 155.569 89.8421 153.337 86.5941C153.315 86.5451 153.38 86.5031 153.412 86.5441Z" fill="#263238"/>
<path d="M138.16 97.821C138.51 98.503 138.887 99.178 139.197 99.879C139.325 100.169 139.451 100.46 139.58 100.749C139.054 98.253 138.537 95.7554 138.028 93.256C138.022 93.226 138.066 93.211 138.074 93.241C139.13 97.288 140.196 101.331 141.174 105.397C142.239 109.269 143.107 113.193 143.774 117.153C144.474 116.85 145.198 116.605 145.938 116.422C145.199 116.906 144.4 117.292 143.562 117.572C142.353 113.548 141.352 109.465 140.562 105.339C140.312 104.219 140.079 103.096 139.84 101.974C139.581 101.298 139.265 100.646 138.958 99.99C138.632 99.295 138.37 98.567 138.086 97.855C138.072 97.813 138.139 97.781 138.16 97.821Z" fill="#263238"/>
<path d="M144.265 113.42C147.465 111.614 160.84 104.692 163.832 103.387C164.04 103.296 164.148 103.402 163.945 103.524C157.598 107.216 151.055 110.559 144.345 113.54C144.261 113.581 144.18 113.466 144.265 113.42Z" fill="#263238"/>
<path d="M510.697 376.317H206.018L250.074 126.466H554.752L510.697 376.317Z" fill="#FFC727"/>
<path d="M354.35 100.591H254.636L250.074 126.466H356.78L354.35 100.591Z" fill="#FFC727"/>
<g opacity="0.1">
<path d="M510.697 376.317H206.018L250.074 126.466H554.752L510.697 376.317Z" fill="black"/>
<path d="M354.35 100.591H254.636L250.074 126.466H356.78L354.35 100.591Z" fill="black"/>
</g>
<path d="M243.877 111.147V102.444" stroke="#263238" stroke-miterlimit="10"/>
<path d="M235.016 113.708L230.665 106.172" stroke="#263238" stroke-miterlimit="10"/>
<path d="M228.623 120.358L221.087 116.007" stroke="#263238" stroke-miterlimit="10"/>
<path d="M226.412 129.313H217.71" stroke="#263238" stroke-miterlimit="10"/>
<path d="M228.976 138.174L221.439 142.525" stroke="#263238" stroke-miterlimit="10"/>
<path d="M235.624 144.566L231.273 152.102" stroke="#263238" stroke-miterlimit="10"/>
<path d="M244.579 146.777V155.48" stroke="#263238" stroke-miterlimit="10"/>
<path d="M253.44 144.215L257.791 151.752" stroke="#263238" stroke-miterlimit="10"/>
<path d="M259.832 137.565L267.369 141.916" stroke="#263238" stroke-miterlimit="10"/>
<path d="M262.044 128.61H270.746" stroke="#263238" stroke-miterlimit="10"/>
<path d="M259.481 119.75L267.018 115.399" stroke="#263238" stroke-miterlimit="10"/>
<path d="M252.832 113.358L257.183 105.821" stroke="#263238" stroke-miterlimit="10"/>
<path d="M510.25 376.317H204.915L161.564 135.536H466.899L510.25 376.317Z" fill="#FFC727"/>
<path d="M267.369 282.728C274.378 282.728 280.06 277.046 280.06 270.037C280.06 263.028 274.378 257.346 267.369 257.346C260.36 257.346 254.678 263.028 254.678 270.037C254.678 277.046 260.36 282.728 267.369 282.728Z" fill="#263238"/>
<path d="M367.694 282.728C374.703 282.728 380.385 277.046 380.385 270.037C380.385 263.028 374.703 257.346 367.694 257.346C360.685 257.346 355.003 263.028 355.003 270.037C355.003 277.046 360.685 282.728 367.694 282.728Z" fill="#263238"/>
<path d="M335.76 284.754L335.06 283.425C334.996 283.305 328.44 271.186 315.248 271.186C303.217 271.186 300.284 282.597 300.165 283.086L299.809 284.54L296.899 283.84L297.249 282.385C297.283 282.243 300.824 268.193 315.249 268.193C330.286 268.193 337.421 281.474 337.717 282.039L338.417 283.367L335.76 284.754Z" fill="#263238"/>
<path d="M489.987 268.58C507.715 264.772 523.729 251.53 525.087 235.729C527.745 204.729 489.987 187.605 493.887 151.782C497.607 117.612 533.448 115.173 547.817 119.897C563.686 125.114 558.249 140.367 543.88 138.397C518.971 134.985 503.313 107.904 515.144 77.185C526.363 48.054 558.844 41.953 558.844 41.953" stroke="#263238" stroke-miterlimit="10" stroke-dasharray="4 4"/>
<path d="M574.698 36.43C572.146 28.53 555.066 31.366 558.398 41.692C561.73 52.018 577.25 44.334 574.698 36.43Z" fill="#263238"/>
<path d="M549.112 33.243C549.239 29.777 554.061 27.11 560.878 28.343C567.695 29.576 574.114 34.166 574.114 34.166C574.114 34.166 567.374 38.29 560.486 39.017C553.598 39.744 548.98 36.726 549.112 33.243Z" fill="#EBEBEB"/>
<path d="M574.114 34.166C570.575 34.191 567.041 34.072 563.506 33.966C559.974 33.814 556.44 33.675 552.912 33.389C556.452 33.363 559.986 33.483 563.52 33.589C567.053 33.737 570.586 33.878 574.114 34.166Z" fill="#263238"/>
<path d="M555.963 30.174C556.969 30.6524 557.945 31.19 558.887 31.784C559.833 32.3709 560.744 33.0145 561.613 33.711C560.606 33.2341 559.629 32.6965 558.688 32.101C557.742 31.5136 556.832 30.8701 555.963 30.174V30.174Z" fill="#263238"/>
<path d="M565.229 33.8359C564.322 34.5717 563.374 35.2558 562.39 35.8849C561.41 36.5211 560.395 37.1004 559.35 37.6199C561.168 36.1517 563.139 34.8831 565.229 33.8359V33.8359Z" fill="#263238"/>
<path d="M566.257 31.884C567.265 32.3755 568.149 33.0882 568.843 33.969C568.338 33.7261 567.865 33.424 567.432 33.069C566.995 32.7212 566.601 32.3235 566.257 31.884V31.884Z" fill="#263238"/>
<path d="M555.607 53.816C557.737 56.553 563.207 55.896 568.018 50.911C572.829 45.926 575.35 38.448 575.35 38.448C575.35 38.448 567.472 39.048 561.459 42.484C555.446 45.92 553.466 51.066 555.607 53.816Z" fill="#EBEBEB"/>
<path d="M575.35 38.448C572.465 40.498 569.668 42.661 566.864 44.816C564.087 47.005 561.303 49.185 558.608 51.479C561.494 49.43 564.291 47.267 567.094 45.112C569.871 42.922 572.655 40.742 575.35 38.448Z" fill="#263238"/>
<path d="M562.959 52.298C563.495 51.3221 563.973 50.3153 564.39 49.283C564.814 48.2533 565.176 47.199 565.474 46.126C564.937 47.1013 564.459 48.1081 564.043 49.141C563.619 50.1708 563.257 51.225 562.959 52.298V52.298Z" fill="#263238"/>
<path d="M568.334 43.91C566 43.783 563.66 43.9063 561.352 44.278C562.518 44.345 563.686 44.345 564.852 44.278C566.019 44.221 567.181 44.0982 568.334 43.91V43.91Z" fill="#263238"/>
<path d="M570.31 44.891C570.577 44.3999 570.785 43.8789 570.929 43.339C571.081 42.801 571.168 42.2467 571.188 41.688C570.92 42.1787 570.712 42.6997 570.568 43.24C570.417 43.7782 570.331 44.3324 570.31 44.891V44.891Z" fill="#263238"/>
<path d="M574.698 36.43C574.134 36.6132 573.527 36.6248 572.956 36.4633C572.385 36.3017 571.874 35.9743 571.489 35.5224C571.104 35.0706 570.862 34.5147 570.793 33.925C570.724 33.3354 570.831 32.7385 571.102 32.21C571.372 31.6815 571.793 31.2451 572.312 30.956C572.83 30.667 573.423 30.5383 574.015 30.5863C574.607 30.6343 575.171 30.8567 575.636 31.2255C576.101 31.5943 576.447 32.0928 576.628 32.658C576.872 33.4142 576.805 34.2359 576.443 34.943C576.081 35.6501 575.454 36.1849 574.698 36.43V36.43Z" fill="#455A64"/>
<path d="M576.54 42.133C575.975 42.316 575.369 42.3274 574.798 42.1657C574.226 42.004 573.716 41.6765 573.331 41.2245C572.946 40.7726 572.704 40.2166 572.635 39.627C572.566 39.0374 572.674 38.4405 572.944 37.9121C573.215 37.3837 573.636 36.9474 574.155 36.6585C574.673 36.3695 575.266 36.241 575.858 36.289C576.449 36.3371 577.013 36.5596 577.479 36.9285C577.944 37.2973 578.289 37.7958 578.471 38.361C578.714 39.1173 578.647 39.9391 578.285 40.6462C577.923 41.3534 577.295 41.888 576.54 42.133V42.133Z" fill="#455A64"/>
<path d="M248.693 39.5861C248.214 44.1797 246.468 48.55 243.65 52.2089C240.832 55.8678 237.052 58.6714 232.732 60.3067C228.413 61.9419 223.724 62.3445 219.189 61.4694C214.654 60.5943 210.452 58.476 207.051 55.3511L194.582 57.1811L200.821 46.4021C199.39 42.893 198.779 39.104 199.032 35.323C199.286 31.5421 200.398 27.8687 202.285 24.5823C204.172 21.2958 206.783 18.4827 209.92 16.357C213.057 14.2312 216.637 12.8487 220.389 12.3145C224.141 11.7804 227.965 12.1087 231.57 13.2744C235.176 14.4401 238.468 16.4126 241.197 19.0419C243.926 21.6713 246.02 24.8882 247.318 28.4481C248.617 32.008 249.087 35.8172 248.693 39.5861V39.5861Z" fill="white"/>
<path d="M248.693 39.586C248.212 44.1804 246.471 48.5527 243.663 52.221C242.29 54.0708 240.641 55.699 238.774 57.049C236.937 58.4413 234.913 59.568 232.761 60.396C230.61 61.2386 228.351 61.7772 226.051 61.996C224.9 62.0995 223.743 62.1215 222.588 62.062C221.431 62.0339 220.277 61.9139 219.139 61.703C214.543 60.8586 210.273 58.7505 206.808 55.615L207.103 55.706L194.646 57.618L193.746 57.757L194.204 56.957L200.404 46.157L200.375 46.584C198.912 43.0109 198.29 39.1495 198.556 35.2978C198.823 31.4461 199.97 27.707 201.91 24.369C203.851 21.0447 206.52 18.203 209.716 16.057C212.908 13.9433 216.537 12.5798 220.332 12.0689C224.126 11.558 227.987 11.9129 231.624 13.107C235.228 14.3287 238.513 16.3427 241.236 19.001C243.955 21.6447 246.039 24.8708 247.331 28.4364C248.622 32.0021 249.088 35.8143 248.693 39.586ZM248.693 39.586C249.092 35.8325 248.623 32.0374 247.324 28.4935C246.024 24.9496 243.928 21.7514 241.198 19.1453C238.467 16.5393 235.174 14.5951 231.573 13.4626C227.973 12.33 224.16 12.0394 220.429 12.613C216.732 13.1655 213.211 14.5567 210.135 16.68C207.089 18.8187 204.545 21.5941 202.678 24.814C200.84 28.0452 199.759 31.6508 199.514 35.36C199.283 39.0649 199.882 42.7747 201.269 46.218L201.359 46.441L201.24 46.641L194.964 57.399L194.518 56.742L206.999 54.994L207.171 54.97L207.294 55.085C210.624 58.2032 214.757 60.3319 219.229 61.232C220.343 61.4589 221.474 61.5963 222.61 61.643C223.746 61.7235 224.886 61.7235 226.021 61.643C228.297 61.4663 230.538 60.9728 232.678 60.177C234.831 59.3999 236.856 58.308 238.689 56.937C240.557 55.607 242.21 53.9979 243.589 52.166C246.416 48.5226 248.182 44.1693 248.693 39.586V39.586Z" fill="#263238"/>
<path d="M211.718 48.615C211.699 48.284 211.748 47.9525 211.862 47.6412C211.976 47.3299 212.153 47.0452 212.381 46.805C212.61 46.5647 212.885 46.3739 213.191 46.2444C213.496 46.1149 213.825 46.0494 214.156 46.052C214.813 46.0864 215.431 46.3713 215.883 46.8481C216.336 47.3249 216.588 47.9572 216.588 48.6145C216.588 49.2719 216.336 49.9042 215.883 50.381C215.431 50.8578 214.813 51.1427 214.156 51.177C213.825 51.1796 213.496 51.1142 213.191 50.9847C212.886 50.8553 212.61 50.6646 212.382 50.4244C212.153 50.1843 211.977 49.8998 211.862 49.5886C211.748 49.2773 211.699 48.946 211.718 48.615V48.615ZM212.751 42.704L212.173 22.866H216.14L215.562 42.705L212.751 42.704Z" fill="#FFC727"/>
<path d="M221.225 48.615C221.206 48.2839 221.255 47.9525 221.37 47.6411C221.484 47.3298 221.661 47.0452 221.889 46.8049C222.118 46.5647 222.393 46.3739 222.699 46.2444C223.004 46.1149 223.333 46.0494 223.664 46.052C224.321 46.0864 224.939 46.3713 225.391 46.8481C225.844 47.3249 226.096 47.9572 226.096 48.6145C226.096 49.2719 225.844 49.9042 225.391 50.381C224.939 50.8578 224.321 51.1427 223.664 51.177C223.333 51.1798 223.004 51.1144 222.699 50.985C222.393 50.8556 222.118 50.665 221.889 50.4248C221.661 50.1846 221.484 49.9001 221.37 49.5888C221.255 49.2775 221.206 48.9461 221.225 48.615V48.615ZM222.258 42.704L221.68 22.866H225.648L225.069 42.705L222.258 42.704Z" fill="#FFC727"/>
<path d="M230.732 48.615C230.713 48.2839 230.762 47.9525 230.876 47.6411C230.991 47.3298 231.167 47.0452 231.396 46.8049C231.625 46.5647 231.9 46.3739 232.205 46.2444C232.511 46.1149 232.839 46.0494 233.171 46.052C233.827 46.0864 234.446 46.3713 234.898 46.8481C235.351 47.3249 235.603 47.9572 235.603 48.6145C235.603 49.2719 235.351 49.9042 234.898 50.381C234.446 50.8578 233.827 51.1427 233.171 51.177C232.839 51.1798 232.511 51.1144 232.206 50.985C231.9 50.8556 231.625 50.665 231.396 50.4248C231.167 50.1846 230.991 49.9001 230.876 49.5888C230.762 49.2775 230.713 48.9461 230.732 48.615V48.615ZM231.766 42.704L231.187 22.866H235.155L234.58 42.704H231.766Z" fill="#FFC727"/>
</g>
<defs>
<clipPath id="clip0_12_2">
<rect width="611.94" height="400.98" fill="white"/>
</clipPath>
</defs>
</svg>
